<?xml version="1.0" encoding="UTF-8"?>
<svg version="1.1" xmlns="http://www.w3.org/2000/svg" width="550" height="438">
<path d="M0 0 C181.5 0 363 0 550 0 C550 144.54 550 289.08 550 438 C368.5 438 187 438 0 438 C0 293.46 0 148.92 0 0 Z " fill="#23265A" transform="translate(0,0)"/>
<path d="M0 0 C2 0 2 0 3.55078125 1.3984375 C11.66984358 10.50762939 16.92712009 21.76916903 18 34 C18.11408203 35.08861328 18.11408203 35.08861328 18.23046875 36.19921875 C18.72427495 44.48715527 15.66231038 51.67537925 12 59 C21.7580731 60.42431502 31.47247045 61.25830206 41.3125 61.875 C52.21116347 62.57346243 62.89394644 63.88412598 73.67456055 65.61108398 C79.69506737 66.56234632 85.53405728 67.23406969 91.625 67.4375 C99.47420283 67.77437566 112.19643872 69.19643872 118 75 C120.06874034 75.6425235 120.06874034 75.6425235 122 76 C122 76.66 122 77.32 122 78 C122.74378906 78.09796875 123.48757813 78.1959375 124.25390625 78.296875 C127.34520323 79.08838774 128.63456636 80.08364116 130.9375 82.25 C133.3194259 84.45249645 135.68884855 86.57193419 138.25 88.5625 C141.19795479 91.17545993 142.95776293 93.64019062 145 97 C145.40089844 97.6084375 145.80179687 98.216875 146.21484375 98.84375 C149.38041937 103.69314244 151.79302123 108.6537842 154 114 C154.53625 115.19625 155.0725 116.3925 155.625 117.625 C157.57596692 122.83111282 157.95387051 128.41384707 158.5703125 133.90234375 C158.66382733 136.86490911 158.66382733 136.86490911 160 138 C160.21321728 139.32668532 160.36997463 140.66259619 160.5 142 C160.5825 142.804375 160.665 143.60875 160.75 144.4375 C160.91666667 146.14583333 161.08333333 147.85416667 161.25 149.5625 C161.3325 150.366875 161.415 151.17125 161.5 152 C161.5721875 152.7425 161.644375 153.485 161.71875 154.25 C161.8285148 156.02383001 161.8285148 156.02383001 163 157 C166.23433894 176.43773524 166.49626237 196.23065301 166.375 215.875 C166.3713443 217.17885651 166.3676886 218.48271301 166.36392212 219.82608032 C166.28540076 243.74251451 165.23224946 267.1076989 160.61328125 290.62890625 C160.05921818 293.67448863 159.75286083 296.60188381 159.5625 299.6875 C159.04473567 306.39813177 157.06923676 312.62337244 155 319 C154.66226562 320.08539063 154.32453125 321.17078125 153.9765625 322.2890625 C148.2322732 339.03305473 135.9474763 353.32790219 120.1953125 361.4453125 C117.4837385 362.69969715 114.77189038 363.885135 112 365 C111.41766602 365.24951416 110.83533203 365.49902832 110.23535156 365.75610352 C104.88096645 367.94232072 99.72842829 368.80173106 94 369.4375 C92.50593628 369.61418213 92.50593628 369.61418213 90.98168945 369.79443359 C74.6720411 371.67580651 58.32210989 373.23723808 41.98007202 374.80752563 C40.34205263 374.96675052 38.70473556 375.13318221 37.06762695 375.30151367 C28.58015692 376.14604217 20.06154718 376.5210802 11.54418945 376.92993164 C8.86311283 377.06004377 6.18257584 377.1987819 3.50195312 377.33789062 C-17.73151036 378.39555519 -38.89244318 378.10348792 -60.125 377.1875 C-61.15773041 377.14431641 -62.19046082 377.10113281 -63.25448608 377.05664062 C-79.11891445 376.38879841 -94.9674435 375.52795583 -110.8125 374.5 C-111.7426593 374.44033051 -112.6728186 374.38066101 -113.63116455 374.31918335 C-123.41271812 373.68490954 -133.17498293 372.93551797 -142.9296875 371.96875 C-143.74915359 371.88757935 -144.56861969 371.80640869 -145.41291809 371.72277832 C-150.66060756 371.18386952 -155.84255407 370.44650385 -161.03515625 369.5078125 C-166.99537578 368.48695804 -173.00312308 367.77009075 -179 367 C-179 366.34 -179 365.68 -179 365 C-180.02867187 364.89300781 -181.05734375 364.78601563 -182.1171875 364.67578125 C-195.25925806 362.38847923 -206.32532384 352.08646958 -214.41796875 341.98046875 C-219.0178511 335.39564655 -222.24014718 328.52112561 -225 321 C-225.29648438 320.26523437 -225.59296875 319.53046875 -225.8984375 318.7734375 C-228.09218801 312.97411685 -228.77719856 307.08130412 -229.47265625 300.94140625 C-229.86063279 298.04164083 -230.33060437 295.26980068 -230.92578125 292.4140625 C-235.48893982 270.04551404 -236.37541391 247.70905479 -236.3125 224.9375 C-236.30986145 223.78810944 -236.3072229 222.63871887 -236.30450439 221.45449829 C-236.25713249 208.9851238 -236.00923339 196.52723953 -235.54296875 184.06640625 C-235.50496658 183.01146469 -235.46696442 181.95652313 -235.42781067 180.86961365 C-235.38742172 179.8937178 -235.34703278 178.91782196 -235.30541992 177.91235352 C-235.25341682 176.62990501 -235.25341682 176.62990501 -235.20036316 175.32154846 C-235.00936387 173.10849633 -234.58437627 171.13770835 -234 169 C-233.82912407 167.64904353 -233.68727924 166.29418741 -233.5703125 164.9375 C-233.4990918 164.15093018 -233.42787109 163.36436035 -233.35449219 162.55395508 C-233.24089355 161.28974731 -233.24089355 161.28974731 -233.125 160 C-231.56191618 143.97546377 -229.73398403 128.95592498 -223.74975586 113.91064453 C-222.96223759 111.90376795 -222.23440814 109.87980755 -221.50390625 107.8515625 C-215.15044347 90.91997535 -201.20145475 80.39886535 -185.5 72.6875 C-175.6850301 68.36478545 -165.82845171 67.75306054 -155.26831055 66.8215332 C-148.31238801 66.18760846 -141.45175847 65.23241211 -134.56835938 64.05297852 C-125.90292608 62.58051664 -117.37399151 61.9319947 -108.58691406 61.76123047 C-92.9788275 61.41636347 -81.23287785 59.01801172 -67.328125 51.73828125 C-61.3851817 48.63427917 -55.26210339 45.92314207 -49.0625 43.375 C-46.2917315 42.13098149 -44.37035489 40.85183976 -42 39 C-40.96875 38.4225 -39.9375 37.845 -38.875 37.25 C-23.7911059 28.65790842 -11.35607022 17.05247934 -1.85546875 2.5703125 C-1.24316406 1.72210938 -0.63085938 0.87390625 0 0 Z " fill="#693AC7" transform="translate(303,12)"/>
<path d="M0 0 C10.80938761 4.27812174 21.0743595 10.1027584 30.9609375 16.171875 C32.06953125 16.84863281 33.178125 17.52539062 34.3203125 18.22265625 C45.9406738 25.43747811 57.00861692 33.77112882 66.9609375 43.171875 C67.48558594 43.6359375 68.01023437 44.1 68.55078125 44.578125 C71.55461511 47.57363799 72.33369402 50.0770883 72.5234375 54.171875 C72.12914878 61.47716878 67.99398631 65.28303962 62.9609375 70.171875 C61.00208062 71.8829088 59.02214787 73.5700692 57.0234375 75.234375 C56.02441406 76.07097656 55.02539062 76.90757812 53.99609375 77.76953125 C51.07322275 80.08300058 48.08818011 82.14637098 44.9609375 84.171875 C44.24550781 84.65269531 43.53007812 85.13351562 42.79296875 85.62890625 C36.91210444 89.57602407 30.96502651 93.41477082 24.9609375 97.171875 C24.17203125 97.67332031 23.383125 98.17476563 22.5703125 98.69140625 C19.9609375 100.171875 19.9609375 100.171875 16.6328125 101.59765625 C14.01896428 102.71827416 11.63788742 103.84995309 9.1640625 105.21484375 C-5.30924281 113.13936358 -5.30924281 113.13936358 -14.0390625 111.171875 C-18.99840892 109.42742718 -21.65923541 106.82188945 -24.0390625 102.171875 C-24.8221448 99.702797 -25.49991019 97.30747355 -26.1015625 94.796875 C-26.42253906 93.53101563 -26.74351562 92.26515625 -27.07421875 90.9609375 C-29.59180879 79.27657137 -30.36727625 67.76055062 -30.29980469 55.85571289 C-30.28905263 53.60731164 -30.29979316 51.35970597 -30.3125 49.11132812 C-30.3216894 39.96806221 -29.62542882 31.19980677 -28.0390625 22.171875 C-27.89839355 21.31907959 -27.75772461 20.46628418 -27.61279297 19.58764648 C-25.12078624 5.24255499 -25.12078624 5.24255499 -20.4140625 1.171875 C-13.44412 -2.9584613 -7.54510864 -2.4608662 0 0 Z " fill="#FBC432" transform="translate(256.0390625,179.828125)"/>
<path d="M0 0 C10.80938761 4.27812174 21.0743595 10.1027584 30.9609375 16.171875 C32.06953125 16.84863281 33.178125 17.52539062 34.3203125 18.22265625 C45.99908223 25.4737426 56.81734423 33.89481985 66.9609375 43.171875 C67.7859375 43.89375 68.6109375 44.615625 69.4609375 45.359375 C70.9609375 47.171875 70.9609375 47.171875 70.9609375 51.171875 C37.9609375 51.171875 4.9609375 51.171875 -29.0390625 51.171875 C-29.0390625 10.97420058 -29.0390625 10.97420058 -22.359375 3.22265625 C-15.36442849 -3.00313639 -8.64076934 -2.81822015 0 0 Z " fill="#FBDA0F" transform="translate(256.0390625,179.828125)"/>
<path d="M0 0 C6.47285415 3.41993583 11.29066311 7.05072681 14 14 C14.328125 16.921875 14.328125 16.921875 14.25 19.75 C14.23453125 20.69359375 14.2190625 21.6371875 14.203125 22.609375 C14 25 14 25 13 27 C12.34 27 11.68 27 11 27 C10.91363281 27.58265625 10.82726562 28.1653125 10.73828125 28.765625 C9.2243366 33.34751041 5.1194674 35.83123891 1 38 C-5.93412787 39.46948405 -12.19866968 38.4629309 -18.15234375 34.60546875 C-22.03989931 31.22748707 -23.68790429 27.58593588 -24.30078125 22.5078125 C-24.37425261 19.96338337 -24.24532315 17.53223392 -24 15 C-23.896875 13.80375 -23.79375 12.6075 -23.6875 11.375 C-19.29111091 2.58222182 -9.63783326 -2.7343291 0 0 Z " fill="#23265D" transform="translate(203,147)"/>
<path d="M0 0 C1.84765625 0.7578125 1.84765625 0.7578125 3.84765625 3.7578125 C4.41015625 6.0703125 4.41015625 6.0703125 3.84765625 8.7578125 C-0.07293165 13.15397467 -5.34043066 16.41893403 -10.15234375 19.7578125 C-7.37915871 22.69906936 -4.84009094 24.9992828 -1.40234375 27.1328125 C1.55069829 29.17673024 1.81092813 29.6415068 2.97265625 33.3203125 C2.84765625 36.7578125 2.84765625 36.7578125 1.78515625 39.1953125 C-0.89129327 41.35373953 -2.81134511 41.05479016 -6.15234375 40.7578125 C-6.48234375 40.0978125 -6.81234375 39.4378125 -7.15234375 38.7578125 C-8.63734375 38.2628125 -8.63734375 38.2628125 -10.15234375 37.7578125 C-11.63734375 37.2628125 -11.63734375 37.2628125 -13.15234375 36.7578125 C-13.48234375 36.0978125 -13.81234375 35.4378125 -14.15234375 34.7578125 C-15.24095703 34.33048828 -15.24095703 34.33048828 -16.3515625 33.89453125 C-19.67694221 32.54490015 -22.13367824 30.77233012 -24.96484375 28.5703125 C-25.94066406 27.83425781 -26.91648437 27.09820312 -27.921875 26.33984375 C-30.15234375 23.7578125 -30.15234375 23.7578125 -30.59765625 20.0859375 C-30.15234375 16.7578125 -30.15234375 16.7578125 -28.21484375 14.6953125 C-27.20421875 14.0559375 -26.19359375 13.4165625 -25.15234375 12.7578125 C-23.73298877 11.82438756 -22.31657508 10.88648221 -20.90234375 9.9453125 C-20.12375 9.44257813 -19.34515625 8.93984375 -18.54296875 8.421875 C-16.07805575 6.70610223 -13.90800146 4.79992818 -11.65234375 2.8203125 C-7.62014191 -0.38985873 -5.02760276 -0.83350028 0 0 Z " fill="#23275F" transform="translate(338.15234375,148.2421875)"/>
</svg>
